<svg version="1.1" viewBox="0.0 0.0 1616.1128608923884 847.3149606299213" fill="none" stroke="none" stroke-linecap="square" stroke-miterlimit="10" xmlns:xlink="http://www.w3.org/1999/xlink" xmlns="http://www.w3.org/2000/svg"><clipPath id="p.0"><path d="m0 0l1616.1129 0l0 847.31494l-1616.1129 0l0 -847.31494z" clip-rule="nonzero"/></clipPath><g clip-path="url(#p.0)"><path fill="#000000" fill-opacity="0.0" d="m0 0l1616.1129 0l0 847.31494l-1616.1129 0z" fill-rule="evenodd"/><path fill="#6aa84f" d="m1064.3151 521.5243l41.070312 5.8012085l7.4492188 -42.902924l7.449341 42.902924l41.070312 -5.8012085l-36.46631 20.714294l17.933472 39.317627l-29.986816 -30.10083l-29.986694 30.10083l17.933472 -39.317627z" fill-rule="evenodd"/><path stroke="#000000" stroke-width="1.0" stroke-linejoin="round" stroke-linecap="butt" d="m1064.3151 521.5243l41.070312 5.8012085l7.4492188 -42.902924l7.449341 42.902924l41.070312 -5.8012085l-36.46631 20.714294l17.933472 39.317627l-29.986816 -30.10083l-29.986694 30.10083l17.933472 -39.317627z" fill-rule="evenodd"/><path fill="#e69138" d="m837.4147 233.70079l0 0c0 -60.63826 52.435608 -109.79528 117.118164 -109.79528l0 0c64.682495 0 117.11804 49.15702 117.11804 109.79528l0 0c0 60.63826 -52.435547 109.79527 -117.11804 109.79527l0 0c-64.682556 0 -117.118164 -49.157013 -117.118164 -109.79527z" fill-rule="evenodd"/><path stroke="#000000" stroke-width="1.0" stroke-linejoin="round" stroke-linecap="butt" d="m837.4147 233.70079l0 0c0 -60.63826 52.435608 -109.79528 117.118164 -109.79528l0 0c64.682495 0 117.11804 49.15702 117.11804 109.79528l0 0c0 60.63826 -52.435547 109.79527 -117.11804 109.79527l0 0c-64.682556 0 -117.118164 -49.157013 -117.118164 -109.79527z" fill-rule="evenodd"/><path fill="#edd9aa" d="m167.6798 101.149605l218.14174 0l0 0c13.611664 0 26.665802 5.4072113 36.29071 15.032112c9.624908 9.624901 15.0321045 22.679062 15.0321045 36.290726l0 51.32283c0 0.0014801025 -0.0011901855 0.002670288 -0.0026550293 0.002670288l-320.78473 -0.002670288l0 0c-0.0014801025 0 -0.0026779175 -0.0011901855 -0.0026779175 -0.002670288l0.0026779175 -51.32016l0 0c0 -28.344818 22.97802 -51.322838 51.322838 -51.322838z" fill-rule="evenodd"/><path stroke="#000000" stroke-width="1.0" stroke-linejoin="round" stroke-linecap="butt" d="m167.6798 101.149605l218.14174 0l0 0c13.611664 0 26.665802 5.4072113 36.29071 15.032112c9.624908 9.624901 15.0321045 22.679062 15.0321045 36.290726l0 51.32283c0 0.0014801025 -0.0011901855 0.002670288 -0.0026550293 0.002670288l-320.78473 -0.002670288l0 0c-0.0014801025 0 -0.0026779175 -0.0011901855 -0.0026779175 -0.002670288l0.0026779175 -51.32016l0 0c0 -28.344818 22.97802 -51.322838 51.322838 -51.322838z" fill-rule="evenodd"/><path fill="#edd9aa" d="m116.367455 286.81104l320.78738 0c7.324219E-4 0 0.0014038086 2.746582E-4 0.0018920898 7.6293945E-4c5.187988E-4 5.187988E-4 7.9345703E-4 0.0011901855 7.9345703E-4 0.0018920898l-0.0026855469 17.0997l0 0c0 9.445374 -7.6569824 17.102356 -17.102356 17.102356l-286.58267 0c-9.445374 0 -17.102364 -7.6569824 -17.102364 -17.102356l0 -17.102356l0 0c0 -0.0014953613 0.0011978149 -0.0026855469 0.002670288 -0.0026855469z" fill-rule="evenodd"/><path stroke="#000000" stroke-width="1.0" stroke-linejoin="round" stroke-linecap="butt" d="m116.367455 286.81104l320.78738 0c7.324219E-4 0 0.0014038086 2.746582E-4 0.0018920898 7.6293945E-4c5.187988E-4 5.187988E-4 7.9345703E-4 0.0011901855 7.9345703E-4 0.0018920898l-0.0026855469 17.0997l0 0c0 9.445374 -7.6569824 17.102356 -17.102356 17.102356l-286.58267 0c-9.445374 0 -17.102364 -7.6569824 -17.102364 -17.102356l0 -17.102356l0 0c0 -0.0014953613 0.0011978149 -0.0026855469 0.002670288 -0.0026855469z" fill-rule="evenodd"/><path fill="#a68c70" d="m169.16107 238.33595l216.60468 0l0 0c28.375793 0 51.378937 10.850937 51.378937 24.236221c0 13.385284 -23.003143 24.236237 -51.378937 24.236237l-216.60468 0l0 0c-28.375793 0 -51.37892 -10.850952 -51.37892 -24.236237c0 -13.385284 23.003128 -24.236221 51.37892 -24.236221z" fill-rule="evenodd"/><path stroke="#000000" stroke-width="1.0" stroke-linejoin="round" stroke-linecap="butt" d="m169.16107 238.33595l216.60468 0l0 0c28.375793 0 51.378937 10.850937 51.378937 24.236221c0 13.385284 -23.003143 24.236237 -51.378937 24.236237l-216.60468 0l0 0c-28.375793 0 -51.37892 -10.850952 -51.37892 -24.236237c0 -13.385284 23.003128 -24.236221 51.37892 -24.236221z" fill-rule="evenodd"/><path fill="#cc0000" d="m123.485565 217.13124c51.803528 -10.104996 103.607056 10.10498 155.41058 0c51.803528 -10.104996 103.607056 10.10498 155.41058 0l2.848114 18.188965c-51.803528 10.104996 -103.607056 -10.10498 -155.41058 0c-51.803528 10.104996 -103.607056 -10.10498 -155.41058 0z" fill-rule="evenodd"/><path stroke="#000000" stroke-width="1.0" stroke-linejoin="round" stroke-linecap="butt" d="m123.485565 217.13124c51.803528 -10.104996 103.607056 10.10498 155.41058 0c51.803528 -10.104996 103.607056 10.10498 155.41058 0l2.848114 18.188965c-51.803528 10.104996 -103.607056 -10.10498 -155.41058 0c-51.803528 10.104996 -103.607056 -10.10498 -155.41058 0z" fill-rule="evenodd"/><path fill="#f1c232" d="m126.33596 205.5433l303.68503 0l0 8.566925l-303.68503 0z" fill-rule="evenodd"/><path stroke="#000000" stroke-width="1.0" stroke-linejoin="round" stroke-linecap="butt" d="m126.33596 205.5433l303.68503 0l0 8.566925l-303.68503 0z" fill-rule="evenodd"/><path fill="#edd9aa" d="m370.958 481.99475l0 0c0 -85.43454 70.217255 -154.6929 156.83466 -154.6929l0 0c41.595093 0 81.48663 16.297943 110.8988 45.308502c29.412231 29.010529 45.935852 68.3573 45.935852 109.3844l0 0c0 85.43451 -70.217285 154.69293 -156.83466 154.69293l0 0c-86.6174 0 -156.83466 -69.25842 -156.83466 -154.69293zm105.46036 0c0 27.1904 23.001038 49.232544 51.3743 49.232544c28.37323 0 51.374268 -22.042145 51.374268 -49.232544c0 -27.1904 -23.001038 -49.232574 -51.374268 -49.232574l0 0c-28.37326 0 -51.3743 22.042175 -51.3743 49.232574z" fill-rule="evenodd"/><path stroke="#000000" stroke-width="1.0" stroke-linejoin="round" stroke-linecap="butt" d="m370.958 481.99475l0 0c0 -85.43454 70.217255 -154.6929 156.83466 -154.6929l0 0c41.595093 0 81.48663 16.297943 110.8988 45.308502c29.412231 29.010529 45.935852 68.3573 45.935852 109.3844l0 0c0 85.43451 -70.217285 154.69293 -156.83466 154.69293l0 0c-86.6174 0 -156.83466 -69.25842 -156.83466 -154.69293zm105.46036 0c0 27.1904 23.001038 49.232544 51.3743 49.232544c28.37323 0 51.374268 -22.042145 51.374268 -49.232544c0 -27.1904 -23.001038 -49.232574 -51.374268 -49.232574l0 0c-28.37326 0 -51.3743 22.042175 -51.3743 49.232574z" fill-rule="evenodd"/><path fill="#ff00ff" d="m394.24933 481.99475l0 0c0 -72.44061 59.7894 -131.16534 133.54333 -131.16534l0 0c35.417847 0 69.38513 13.819153 94.42938 38.41742c25.04419 24.598297 39.11389 57.960724 39.11389 92.747925l0 0c0 72.44061 -59.789368 131.16534 -133.54327 131.16534l0 0c-73.75394 0 -133.54333 -58.72473 -133.54333 -131.16534zm72.61578 0c0 32.33606 27.278198 58.54956 60.92755 58.54956c33.649353 0 60.92755 -26.213501 60.92755 -58.54956c0 -32.33606 -27.278198 -58.54959 -60.92755 -58.54959l0 0c-33.649353 0 -60.92755 26.213531 -60.92755 58.54959z" fill-rule="evenodd"/><path stroke="#d102af" stroke-width="1.0" stroke-linejoin="round" stroke-linecap="butt" d="m394.24933 481.99475l0 0c0 -72.44061 59.7894 -131.16534 133.54333 -131.16534l0 0c35.417847 0 69.38513 13.819153 94.42938 38.41742c25.04419 24.598297 39.11389 57.960724 39.11389 92.747925l0 0c0 72.44061 -59.789368 131.16534 -133.54327 131.16534l0 0c-73.75394 0 -133.54333 -58.72473 -133.54333 -131.16534zm72.61578 0c0 32.33606 27.278198 58.54956 60.92755 58.54956c33.649353 0 60.92755 -26.213501 60.92755 -58.54956c0 -32.33606 -27.278198 -58.54959 -60.92755 -58.54959l0 0c-33.649353 0 -60.92755 26.213531 -60.92755 58.54959z" fill-rule="evenodd"/><path fill="#e3c098" d="m624.4094 109.931755l126.834656 0c6.4278564 0 12.592407 2.5534515 17.137634 7.098625c4.545166 4.5451736 7.098572 10.709755 7.098572 17.137604l0 24.236221c0 7.9345703E-4 -6.1035156E-4 0.001449585 -0.0014038086 0.001449585l-175.30566 -0.001449585l0 0c-7.9345703E-4 0 -0.0014648438 -6.5612793E-4 -0.0014648438 -0.0014648438l0.0014648438 -24.234756l0 0c0 -13.3853 10.850952 -24.236229 24.236206 -24.236229z" fill-rule="evenodd"/><path stroke="#000000" stroke-width="1.0" stroke-linejoin="round" stroke-linecap="butt" d="m624.4094 109.931755l126.834656 0c6.4278564 0 12.592407 2.5534515 17.137634 7.098625c4.545166 4.5451736 7.098572 10.709755 7.098572 17.137604l0 24.236221c0 7.9345703E-4 -6.1035156E-4 0.001449585 -0.0014038086 0.001449585l-175.30566 -0.001449585l0 0c-7.9345703E-4 0 -0.0014648438 -6.5612793E-4 -0.0014648438 -0.0014648438l0.0014648438 -24.234756l0 0c0 -13.3853 10.850952 -24.236229 24.236206 -24.236229z" fill-rule="evenodd"/><path fill="#fff2cc" d="m600.1732 158.4042l175.30707 0l-87.6535 141.13385z" fill-rule="evenodd"/><path stroke="#000000" stroke-width="1.0" stroke-linejoin="round" stroke-linecap="butt" d="m600.1732 158.4042l175.30707 0l-87.6535 141.13385z" fill-rule="evenodd"/><path fill="#cc0000" d="m638.80054 194.85301l0 0c0 -6.696991 5.7321777 -12.125977 12.803162 -12.125977l0 0c3.3955688 0 6.6520996 1.2775574 9.053162 3.5516205c2.401062 2.274063 3.749939 5.3583527 3.749939 8.574356l0 0c0 6.697006 -5.7321167 12.125992 -12.803101 12.125992l0 0c-7.070984 0 -12.803162 -5.4289856 -12.803162 -12.125992z" fill-rule="evenodd"/><path stroke="#000000" stroke-width="1.0" stroke-linejoin="round" stroke-linecap="butt" d="m638.80054 194.85301l0 0c0 -6.696991 5.7321777 -12.125977 12.803162 -12.125977l0 0c3.3955688 0 6.6520996 1.2775574 9.053162 3.5516205c2.401062 2.274063 3.749939 5.3583527 3.749939 8.574356l0 0c0 6.697006 -5.7321167 12.125992 -12.803101 12.125992l0 0c-7.070984 0 -12.803162 -5.4289856 -12.803162 -12.125992z" fill-rule="evenodd"/><path fill="#cc0000" d="m670.80054 250.85301l0 0c0 -6.696991 5.7321777 -12.125977 12.803162 -12.125977l0 0c3.3955688 0 6.6520996 1.2775574 9.053162 3.5516205c2.401062 2.274063 3.749939 5.3583527 3.749939 8.574356l0 0c0 6.697006 -5.7321167 12.125992 -12.803101 12.125992l0 0c-7.070984 0 -12.803162 -5.4289856 -12.803162 -12.125992z" fill-rule="evenodd"/><path stroke="#000000" stroke-width="1.0" stroke-linejoin="round" stroke-linecap="butt" d="m670.80054 250.85301l0 0c0 -6.696991 5.7321777 -12.125977 12.803162 -12.125977l0 0c3.3955688 0 6.6520996 1.2775574 9.053162 3.5516205c2.401062 2.274063 3.749939 5.3583527 3.749939 8.574356l0 0c0 6.697006 -5.7321167 12.125992 -12.803101 12.125992l0 0c-7.070984 0 -12.803162 -5.4289856 -12.803162 -12.125992z" fill-rule="evenodd"/><path fill="#cc0000" d="m686.80054 210.85301l0 0c0 -6.696991 5.7321777 -12.125977 12.803162 -12.125977l0 0c3.3955688 0 6.6520996 1.2775574 9.053162 3.5516205c2.401062 2.274063 3.749939 5.3583527 3.749939 8.574356l0 0c0 6.697006 -5.7321167 12.125992 -12.803101 12.125992l0 0c-7.070984 0 -12.803162 -5.4289856 -12.803162 -12.125992z" fill-rule="evenodd"/><path stroke="#000000" stroke-width="1.0" stroke-linejoin="round" stroke-linecap="butt" d="m686.80054 210.85301l0 0c0 -6.696991 5.7321777 -12.125977 12.803162 -12.125977l0 0c3.3955688 0 6.6520996 1.2775574 9.053162 3.5516205c2.401062 2.274063 3.749939 5.3583527 3.749939 8.574356l0 0c0 6.697006 -5.7321167 12.125992 -12.803101 12.125992l0 0c-7.070984 0 -12.803162 -5.4289856 -12.803162 -12.125992z" fill-rule="evenodd"/><path fill="#cc0000" d="m718.80054 178.85301l0 0c0 -6.696991 5.7321777 -12.125977 12.803162 -12.125977l0 0c3.3955688 0 6.6520996 1.2775574 9.053162 3.5516205c2.401062 2.274063 3.749939 5.3583527 3.749939 8.574356l0 0c0 6.697006 -5.7321167 12.125992 -12.803101 12.125992l0 0c-7.070984 0 -12.803162 -5.4289856 -12.803162 -12.125992z" fill-rule="evenodd"/><path stroke="#000000" stroke-width="1.0" stroke-linejoin="round" stroke-linecap="butt" d="m718.80054 178.85301l0 0c0 -6.696991 5.7321777 -12.125977 12.803162 -12.125977l0 0c3.3955688 0 6.6520996 1.2775574 9.053162 3.5516205c2.401062 2.274063 3.749939 5.3583527 3.749939 8.574356l0 0c0 6.697006 -5.7321167 12.125992 -12.803101 12.125992l0 0c-7.070984 0 -12.803162 -5.4289856 -12.803162 -12.125992z" fill-rule="evenodd"/><path fill="#d7c777" d="m708.6273 580.8583l0 -70.566925l0 0c0 -38.973053 64.181885 -70.566956 143.35431 -70.566956c79.172424 0 143.35431 31.593903 143.35431 70.566956l0 70.566925z" fill-rule="evenodd"/><path stroke="#000000" stroke-width="1.0" stroke-linejoin="round" stroke-linecap="butt" d="m708.6273 580.8583l0 -70.566925l0 0c0 -38.973053 64.181885 -70.566956 143.35431 -70.566956c79.172424 0 143.35431 31.593903 143.35431 70.566956l0 70.566925z" fill-rule="evenodd"/><path fill="#cdaf5d" d="m784.23627 443.83286l19.10022 -2.854065l-0.10974121 64.60489z" fill-rule="evenodd"/><path fill="#cdaf5d" d="m837.4147 442.13123l19.312378 0l-9.656189 63.879272z" fill-rule="evenodd"/><path stroke="#d7c777" stroke-width="1.0" stroke-linejoin="round" stroke-linecap="butt" d="m837.4147 442.13123l19.312378 0l-9.656189 63.879272z" fill-rule="evenodd"/><path fill="#cdaf5d" d="m889.628 441.15042l19.150024 2.4984741l-17.839294 62.09317z" fill-rule="evenodd"/><path fill="#edd9aa" d="m99.423836 445.23883l212.74414 0l0 0c27.870056 0 50.463226 10.850952 50.463226 24.236237c0 13.385284 -22.59317 24.236206 -50.463226 24.236206l-212.74414 0l0 0c-27.870064 0 -50.463207 -10.850922 -50.463207 -24.236206c0 -13.385284 22.593143 -24.236237 50.463207 -24.236237z" fill-rule="evenodd"/><path stroke="#000000" stroke-width="1.0" stroke-linejoin="round" stroke-linecap="butt" d="m99.423836 445.23883l212.74414 0l0 0c27.870056 0 50.463226 10.850952 50.463226 24.236237c0 13.385284 -22.59317 24.236206 -50.463226 24.236206l-212.74414 0l0 0c-27.870064 0 -50.463207 -10.850922 -50.463207 -24.236206c0 -13.385284 22.593143 -24.236237 50.463207 -24.236237z" fill-rule="evenodd"/><path fill="#a61c00" d="m106.04664 439.72452l194.45667 0l0 0c25.474335 0 46.125366 8.5043335 46.125366 18.994965c0 10.490631 -20.651031 18.994965 -46.125366 18.994965l-194.45667 0l0 0c-25.474342 0 -46.125378 -8.5043335 -46.125378 -18.994965c0 -10.490631 20.651035 -18.994965 46.125378 -18.994965z" fill-rule="evenodd"/><path stroke="#000000" stroke-width="1.0" stroke-linejoin="round" stroke-linecap="butt" d="m106.04664 439.72452l194.45667 0l0 0c25.474335 0 46.125366 8.5043335 46.125366 18.994965c0 10.490631 -20.651031 18.994965 -46.125366 18.994965l-194.45667 0l0 0c-25.474342 0 -46.125378 -8.5043335 -46.125378 -18.994965c0 -10.490631 20.651035 -18.994965 46.125378 -18.994965z" fill-rule="evenodd"/><path fill="#edd9aa" d="m99.423836 457.75854l212.74414 0l0 0c27.870056 0 50.463226 10.850922 50.463226 24.236206c0 13.385284 -22.59317 24.236206 -50.463226 24.236206l-212.74414 0l0 0c-27.870064 0 -50.463207 -10.850922 -50.463207 -24.236206c0 -13.385284 22.593143 -24.236206 50.463207 -24.236206z" fill-rule="evenodd"/><path stroke="#000000" stroke-width="1.0" stroke-linejoin="round" stroke-linecap="butt" d="m99.423836 457.75854l212.74414 0l0 0c27.870056 0 50.463226 10.850922 50.463226 24.236206c0 13.385284 -22.59317 24.236206 -50.463226 24.236206l-212.74414 0l0 0c-27.870064 0 -50.463207 -10.850922 -50.463207 -24.236206c0 -13.385284 22.593143 -24.236206 50.463207 -24.236206z" fill-rule="evenodd"/><path fill="#ffff00" d="m78.38058 438.5118c39.26796 -7.0078735 78.53593 7.0078735 117.80389 0c39.26796 -7.0078735 78.535934 7.0078735 117.80388 0l3.069397 12.614166c-39.267944 7.0078735 -78.53592 -7.0078735 -117.80388 0c-39.267975 7.0078735 -78.535934 -7.0078735 -117.803894 0z" fill-rule="evenodd"/><path stroke="#7f6000" stroke-width="1.0" stroke-linejoin="round" stroke-linecap="butt" d="m78.38058 438.5118c39.26796 -7.0078735 78.53593 7.0078735 117.80389 0c39.26796 -7.0078735 78.535934 7.0078735 117.80388 0l3.069397 12.614166c-39.267944 7.0078735 -78.53592 -7.0078735 -117.80388 0c-39.267975 7.0078735 -78.535934 -7.0078735 -117.803894 0z" fill-rule="evenodd"/><path fill="#ff9900" d="m844.4252 233.4147l0 0c0 -56.663544 48.811584 -102.598434 109.02362 -102.598434l0 0c28.914917 0 56.645447 10.809448 77.09137 30.050385c20.445923 19.240936 31.932251 45.33725 31.932251 72.54805l0 0c0 56.663544 -48.811523 102.59842 -109.02362 102.59842l0 0c-60.212036 0 -109.02362 -45.934875 -109.02362 -102.59842z" fill-rule="evenodd"/><path fill="#000000" fill-opacity="0.0" d="m953.4488 130.81627l0 205.19685m-109.02362 -102.59842l218.04724 0" fill-rule="evenodd"/><path fill="#000000" fill-opacity="0.0" d="m844.4252 233.4147l0 0c0 -56.663544 48.811584 -102.598434 109.02362 -102.598434l0 0c28.914917 0 56.645447 10.809448 77.09137 30.050385c20.445923 19.240936 31.932251 45.33725 31.932251 72.54805l0 0c0 56.663544 -48.811523 102.59842 -109.02362 102.59842l0 0c-60.212036 0 -109.02362 -45.934875 -109.02362 -102.59842z" fill-rule="evenodd"/><path stroke="#000000" stroke-width="1.0" stroke-linejoin="round" stroke-linecap="butt" d="m953.4488 130.81627l0 205.19685m-109.02362 -102.59842l218.04724 0" fill-rule="evenodd"/><path stroke="#000000" stroke-width="1.0" stroke-linejoin="round" stroke-linecap="butt" d="m844.4252 233.4147l0 0c0 -56.663544 48.811584 -102.598434 109.02362 -102.598434l0 0c28.914917 0 56.645447 10.809448 77.09137 30.050385c20.445923 19.240936 31.932251 45.33725 31.932251 72.54805l0 0c0 56.663544 -48.811523 102.59842 -109.02362 102.59842l0 0c-60.212036 0 -109.02362 -45.934875 -109.02362 -102.59842z" fill-rule="evenodd"/><path fill="#000000" fill-opacity="0.0" d="m845.3333 233.4147l0 0c0 -56.663544 48.811584 -102.598434 109.02362 -102.598434l0 0c28.914856 0 56.645447 10.809448 77.09131 30.050385c20.445923 19.240936 31.932373 45.33725 31.932373 72.54805l0 0c0 56.663544 -48.811584 102.59842 -109.02368 102.59842l0 0c-60.212036 0 -109.02362 -45.934875 -109.02362 -102.59842z" fill-rule="evenodd"/><path fill="#000000" fill-opacity="0.0" d="m877.2656 160.86665l154.18262 145.09608m0 -145.09608l-154.18262 145.09608" fill-rule="evenodd"/><path fill="#000000" fill-opacity="0.0" d="m845.3333 233.4147l0 0c0 -56.663544 48.811584 -102.598434 109.02362 -102.598434l0 0c28.914856 0 56.645447 10.809448 77.09131 30.050385c20.445923 19.240936 31.932373 45.33725 31.932373 72.54805l0 0c0 56.663544 -48.811584 102.59842 -109.02368 102.59842l0 0c-60.212036 0 -109.02362 -45.934875 -109.02362 -102.59842z" fill-rule="evenodd"/><path stroke="#000000" stroke-width="1.0" stroke-linejoin="round" stroke-linecap="butt" d="m877.2656 160.86665l154.18262 145.09608m0 -145.09608l-154.18262 145.09608" fill-rule="evenodd"/><path stroke="#000000" stroke-width="1.0" stroke-linejoin="round" stroke-linecap="butt" d="m845.3333 233.4147l0 0c0 -56.663544 48.811584 -102.598434 109.02362 -102.598434l0 0c28.914856 0 56.645447 10.809448 77.09131 30.050385c20.445923 19.240936 31.932373 45.33725 31.932373 72.54805l0 0c0 56.663544 -48.811584 102.59842 -109.02368 102.59842l0 0c-60.212036 0 -109.02362 -45.934875 -109.02362 -102.59842z" fill-rule="evenodd"/><path fill="#ead1dc" d="m1239.949 201.20927l0 0c13.728394 5.7128754 24.47815 16.698746 27.687866 28.295868c3.2097168 11.597137 -1.6835938 21.771652 -12.603516 26.206131l0 0c6.088501 6.875702 8.573975 14.8471985 6.704712 21.503296c-1.8692627 6.656067 -7.873657 11.214966 -16.197021 12.297668l0 0c5.602783 6.078949 7.708496 13.275696 5.5701904 19.036407c-2.1384277 5.760742 -8.218384 9.270172 -16.082397 9.2829895l0 0c4.9801025 8.242859 4.362915 16.806885 -1.5847168 21.98639c-5.947632 5.1795044 -16.157349 6.0441895 -26.211426 2.2198792l0 0c-4.9154053 4.229065 -12.553223 5.863861 -20.940186 4.481964c-8.386963 -1.381897 -16.700317 -5.644928 -22.792114 -11.687622l0 0c-12.539795 0.062072754 -26.174316 -5.625 -35.81543 -14.938934c-9.641235 -9.313934 -13.840454 -20.855377 -11.030762 -30.317291c-10.643677 -5.748169 -18.250122 -15.075989 -19.887695 -24.388123c-1.6375732 -9.312103 2.949463 -17.154404 11.993164 -20.50412c-11.341919 -9.522232 -16.685303 -22.162079 -13.721558 -32.458633c2.963623 -10.296555 13.703125 -16.403992 27.578613 -15.68364c-2.079712 -9.287125 0.41662598 -17.771332 6.9257812 -23.538742c6.509033 -5.7674103 16.482666 -8.33223 27.67102 -7.1158752l0 0c2.3833008 -7.0881805 10.543457 -10.821457 20.430664 -9.347015c9.887207 1.4744415 19.396729 7.8427124 23.80896 15.94429l0 0c7.9647217 -3.211914 19.208252 -1.0256195 27.867432 5.418808c8.65918 6.4444275 12.771973 15.6866455 10.193481 22.907227z" fill-rule="evenodd"/><path fill="#000000" fill-opacity="0.0" d="m1201.4531 172.4863l0 0c-3.758667 1.5157166 -6.488159 4.1259003 -7.8220215 7.4800873m-36.417725 -14.079224c-0.4984131 1.4824677 -0.72875977 3.0731812 -0.6850586 4.731079m-33.910034 25.921951c2.5566406 0.13272095 5.1706543 0.4960785 7.7973633 1.0838776m-21.654907 47.06024l0 0c2.067871 1.7360535 4.296509 3.3344269 6.6486816 4.7684937m1.2456055 40.122086c11.331665 6.119812 24.152344 7.1343994 32.95508 2.6080017m13.890015 42.64743c-3.2508545 -3.2246094 -5.7384033 -6.8286133 -7.2677 -10.529388m51.00049 17.736664l0 0c-1.6685791 -0.63464355 -3.303833 -1.3881836 -4.8831787 -2.2502441m32.678467 -21.95575l0 0c-1.2423096 -2.0561829 -2.800415 -4.035095 -4.6259766 -5.8750916m15.13916 -22.444122l0 0c-1.345581 -1.4599915 -2.8656006 -2.824646 -4.5247803 -4.062561m14.017212 -29.738922l0 0c-2.310669 0.938324 -4.8409424 1.597168 -7.5355225 1.9620667m-7.5493164 -56.4637l0 0c-1.8920898 -0.78738403 -3.8151855 -1.463211 -5.7510986 -2.0211487" fill-rule="evenodd"/><path stroke="#000000" stroke-width="1.0" stroke-linejoin="round" stroke-linecap="butt" d="m1239.949 201.20927l0 0c13.728394 5.7128754 24.47815 16.698746 27.687866 28.295868c3.2097168 11.597137 -1.6835938 21.771652 -12.603516 26.206131l0 0c6.088501 6.875702 8.573975 14.8471985 6.704712 21.503296c-1.8692627 6.656067 -7.873657 11.214966 -16.197021 12.297668l0 0c5.602783 6.078949 7.708496 13.275696 5.5701904 19.036407c-2.1384277 5.760742 -8.218384 9.270172 -16.082397 9.2829895l0 0c4.9801025 8.242859 4.362915 16.806885 -1.5847168 21.98639c-5.947632 5.1795044 -16.157349 6.0441895 -26.211426 2.2198792l0 0c-4.9154053 4.229065 -12.553223 5.863861 -20.940186 4.481964c-8.386963 -1.381897 -16.700317 -5.644928 -22.792114 -11.687622l0 0c-12.539795 0.062072754 -26.174316 -5.625 -35.81543 -14.938934c-9.641235 -9.313934 -13.840454 -20.855377 -11.030762 -30.317291c-10.643677 -5.748169 -18.250122 -15.075989 -19.887695 -24.388123c-1.6375732 -9.312103 2.949463 -17.154404 11.993164 -20.50412c-11.341919 -9.522232 -16.685303 -22.162079 -13.721558 -32.458633c2.963623 -10.296555 13.703125 -16.403992 27.578613 -15.68364c-2.079712 -9.287125 0.41662598 -17.771332 6.9257812 -23.538742c6.509033 -5.7674103 16.482666 -8.33223 27.67102 -7.1158752l0 0c2.3833008 -7.0881805 10.543457 -10.821457 20.430664 -9.347015c9.887207 1.4744415 19.396729 7.8427124 23.80896 15.94429l0 0c7.9647217 -3.211914 19.208252 -1.0256195 27.867432 5.418808c8.65918 6.4444275 12.771973 15.6866455 10.193481 22.907227z" fill-rule="evenodd"/><path stroke="#000000" stroke-width="1.0" stroke-linejoin="round" stroke-linecap="butt" d="m1201.4531 172.4863l0 0c-3.758667 1.5157166 -6.488159 4.1259003 -7.8220215 7.4800873m-36.417725 -14.079224c-0.4984131 1.4824677 -0.72875977 3.0731812 -0.6850586 4.731079m-33.910034 25.921951c2.5566406 0.13272095 5.1706543 0.4960785 7.7973633 1.0838776m-21.654907 47.06024l0 0c2.067871 1.7360535 4.296509 3.3344269 6.6486816 4.7684937m1.2456055 40.122086c11.331665 6.119812 24.152344 7.1343994 32.95508 2.6080017m13.890015 42.64743c-3.2508545 -3.2246094 -5.7384033 -6.8286133 -7.2677 -10.529388m51.00049 17.736664l0 0c-1.6685791 -0.63464355 -3.303833 -1.3881836 -4.8831787 -2.2502441m32.678467 -21.95575l0 0c-1.2423096 -2.0561829 -2.800415 -4.035095 -4.6259766 -5.8750916m15.13916 -22.444122l0 0c-1.345581 -1.4599915 -2.8656006 -2.824646 -4.5247803 -4.062561m14.017212 -29.738922l0 0c-2.310669 0.938324 -4.8409424 1.597168 -7.5355225 1.9620667m-7.5493164 -56.4637l0 0c-1.8920898 -0.78738403 -3.8151855 -1.463211 -5.7510986 -2.0211487" fill-rule="evenodd"/><path fill="#f2ead9" d="m1155.9265 321.01575l64.13391 0l-32.067017 155.09186z" fill-rule="evenodd"/><path stroke="#000000" stroke-width="1.0" stroke-linejoin="round" stroke-linecap="butt" d="m1155.9265 321.01575l64.13391 0l-32.067017 155.09186z" fill-rule="evenodd"/><path fill="#ffd966" d="m1046.0657 633.2231l0 0c0 -53.63684 30.183716 -97.1181 67.41724 -97.1181l0 0c17.880249 0 35.028076 10.232056 47.671265 28.445251c12.643188 18.213196 19.746094 42.915527 19.746094 68.67285l0 0c0 53.63684 -30.183716 97.1181 -67.41736 97.1181l0 0c-37.23352 0 -67.41724 -43.481262 -67.41724 -97.1181z" fill-rule="evenodd"/><path stroke="#000000" stroke-width="1.0" stroke-linejoin="round" stroke-linecap="butt" d="m1046.0657 633.2231l0 0c0 -53.63684 30.183716 -97.1181 67.41724 -97.1181l0 0c17.880249 0 35.028076 10.232056 47.671265 28.445251c12.643188 18.213196 19.746094 42.915527 19.746094 68.67285l0 0c0 53.63684 -30.183716 97.1181 -67.41736 97.1181l0 0c-37.23352 0 -67.41724 -43.481262 -67.41724 -97.1181z" fill-rule="evenodd"/><path fill="#000000" fill-opacity="0.0" d="m1046.0657 634.2336l0 0c0 -53.63684 30.183716 -97.1181 67.41724 -97.1181l0 0c17.880249 0 35.028076 10.232056 47.671265 28.445251c12.643188 18.213196 19.746094 42.915527 19.746094 68.67285l0 0c0 53.63684 -30.183716 97.1181 -67.41736 97.1181l0 0c-37.23352 0 -67.41724 -43.481262 -67.41724 -97.1181z" fill-rule="evenodd"/><path fill="#000000" fill-opacity="0.0" d="m1065.8116 565.5607l95.34253 137.34576m0 -137.34576l-95.34253 137.34576" fill-rule="evenodd"/><path fill="#000000" fill-opacity="0.0" d="m1046.0657 634.2336l0 0c0 -53.63684 30.183716 -97.1181 67.41724 -97.1181l0 0c17.880249 0 35.028076 10.232056 47.671265 28.445251c12.643188 18.213196 19.746094 42.915527 19.746094 68.67285l0 0c0 53.63684 -30.183716 97.1181 -67.41736 97.1181l0 0c-37.23352 0 -67.41724 -43.481262 -67.41724 -97.1181z" fill-rule="evenodd"/><path stroke="#000000" stroke-width="1.0" stroke-linejoin="round" stroke-linecap="butt" d="m1065.8116 565.5607l95.34253 137.34576m0 -137.34576l-95.34253 137.34576" fill-rule="evenodd"/><path stroke="#000000" stroke-width="1.0" stroke-linejoin="round" stroke-linecap="butt" d="m1046.0657 634.2336l0 0c0 -53.63684 30.183716 -97.1181 67.41724 -97.1181l0 0c17.880249 0 35.028076 10.232056 47.671265 28.445251c12.643188 18.213196 19.746094 42.915527 19.746094 68.67285l0 0c0 53.63684 -30.183716 97.1181 -67.41736 97.1181l0 0c-37.23352 0 -67.41724 -43.481262 -67.41724 -97.1181z" fill-rule="evenodd"/><path fill="#000000" fill-opacity="0.0" d="m1065.8116 565.5607l0 0" fill-rule="evenodd"/><path stroke="#000000" stroke-width="1.0" stroke-linejoin="round" stroke-linecap="butt" d="m1065.8116 565.5607l0 0" fill-rule="evenodd"/><path fill="#000000" fill-opacity="0.0" d="m1065.8116 565.5607l0 0" fill-rule="evenodd"/><path stroke="#000000" stroke-width="1.0" stroke-linejoin="round" stroke-linecap="butt" d="m1065.8116 565.5607l0 0" fill-rule="evenodd"/><path fill="#000000" fill-opacity="0.0" d="m1113.4829 537.1155l67.433105 97.13385" fill-rule="evenodd"/><path stroke="#000000" stroke-width="1.0" stroke-linejoin="round" stroke-linecap="butt" d="m1113.4829 537.1155l67.433105 97.13385" fill-rule="evenodd"/><path fill="#000000" fill-opacity="0.0" d="m1046.0657 634.2336l67.43298 97.13385" fill-rule="evenodd"/><path stroke="#000000" stroke-width="1.0" stroke-linejoin="round" stroke-linecap="butt" d="m1046.0657 634.2336l67.43298 97.13385" fill-rule="evenodd"/><path fill="#000000" fill-opacity="0.0" d="m1046.0657 634.2336l67.43298 -97.13385" fill-rule="evenodd"/><path stroke="#000000" stroke-width="1.0" stroke-linejoin="round" stroke-linecap="butt" d="m1046.0657 634.2336l67.43298 -97.13385" fill-rule="evenodd"/><path fill="#000000" fill-opacity="0.0" d="m1113.4829 731.3517l67.433105 -97.13385" fill-rule="evenodd"/><path stroke="#000000" stroke-width="1.0" stroke-linejoin="round" stroke-linecap="butt" d="m1113.4829 731.3517l67.433105 -97.13385" fill-rule="evenodd"/><path fill="#000000" fill-opacity="0.0" d="m1080.5826 538.6116l94.519775 134.92914" fill-rule="evenodd"/><path stroke="#000000" stroke-width="1.0" stroke-linejoin="round" stroke-linecap="butt" d="m1080.5826 538.6116l94.519775 134.92914" fill-rule="evenodd"/><path fill="#000000" fill-opacity="0.0" d="m1048.5826 586.6116l94.519775 134.92914" fill-rule="evenodd"/><path stroke="#000000" stroke-width="1.0" stroke-linejoin="round" stroke-linecap="butt" d="m1048.5826 586.6116l94.519775 134.92914" fill-rule="evenodd"/><path fill="#000000" fill-opacity="0.0" d="m1177.4384 586.8268l-97.03943 141.32281" fill-rule="evenodd"/><path stroke="#000000" stroke-width="1.0" stroke-linejoin="round" stroke-linecap="butt" d="m1177.4384 586.8268l-97.03943 141.32281" fill-rule="evenodd"/><path fill="#000000" fill-opacity="0.0" d="m1145.4384 546.8268l-97.03943 141.32281" fill-rule="evenodd"/><path stroke="#000000" stroke-width="1.0" stroke-linejoin="round" stroke-linecap="butt" d="m1145.4384 546.8268l-97.03943 141.32281" fill-rule="evenodd"/><path fill="#6aa84f" d="m1082.0779 494.27448l28.968506 29.680908l32.1062 -29.421417l-20.312134 38.522125l36.056274 20.493835l-41.521973 -5.872925l-9.822388 42.08728l-5.3498535 -42.151794l-42.12671 5.517578l38.215576 -20.178284z" fill-rule="evenodd"/><path stroke="#000000" stroke-width="1.0" stroke-linejoin="round" stroke-linecap="butt" d="m1082.0779 494.27448l28.968506 29.680908l32.1062 -29.421417l-20.312134 38.522125l36.056274 20.493835l-41.521973 -5.872925l-9.822388 42.08728l-5.3498535 -42.151794l-42.12671 5.517578l38.215576 -20.178284z" fill-rule="evenodd"/><path fill="#cfe2f3" d="m1269.7507 375.0578l0 0c17.751343 -37.164 71.37842 -48.55075 119.77954 -25.433075q50.469727 24.105743 105.81787 37.998016q-31.811768 32.39917 -50.3219 71.15158l0 0c-17.751343 37.16397 -71.37842 48.55075 -119.77954 25.433075l0 0c-48.401 -23.117676 -73.24744 -71.98563 -55.49597 -109.1496z" fill-rule="evenodd"/><path stroke="#000000" stroke-width="1.0" stroke-linejoin="round" stroke-linecap="butt" d="m1269.7507 375.0578l0 0c17.751343 -37.164 71.37842 -48.55075 119.77954 -25.433075q50.469727 24.105743 105.81787 37.998016q-31.811768 32.39917 -50.3219 71.15158l0 0c-17.751343 37.16397 -71.37842 48.55075 -119.77954 25.433075l0 0c-48.401 -23.117676 -73.24744 -71.98563 -55.49597 -109.1496z" fill-rule="evenodd"/><path fill="#000000" d="m1290.6956 406.3386l0 0c0 -6.696991 6.3878174 -12.126007 14.2677 -12.126007l0 0c7.879883 0 14.2677 5.429016 14.2677 12.126007l0 0c0 6.696991 -6.3878174 12.125977 -14.2677 12.125977l0 0c-7.879883 0 -14.2677 -5.4289856 -14.2677 -12.125977z" fill-rule="evenodd"/><path stroke="#000000" stroke-width="1.0" stroke-linejoin="round" stroke-linecap="butt" d="m1290.6956 406.3386l0 0c0 -6.696991 6.3878174 -12.126007 14.2677 -12.126007l0 0c7.879883 0 14.2677 5.429016 14.2677 12.126007l0 0c0 6.696991 -6.3878174 12.125977 -14.2677 12.125977l0 0c-7.879883 0 -14.2677 -5.4289856 -14.2677 -12.125977z" fill-rule="evenodd"/><path fill="#9fc5e8" d="m1354.9081 426.3176l20.86621 0l0 0c11.524048 0 20.866089 7.6569824 20.866089 17.102356c0 9.445374 -9.342041 17.102356 -20.866089 17.102356l-20.86621 0z" fill-rule="evenodd"/><path stroke="#000000" stroke-width="1.0" stroke-linejoin="round" stroke-linecap="butt" d="m1354.9081 426.3176l20.86621 0l0 0c11.524048 0 20.866089 7.6569824 20.866089 17.102356c0 9.445374 -9.342041 17.102356 -20.866089 17.102356l-20.86621 0z" fill-rule="evenodd"/><path fill="#9fc5e8" d="m1333.8115 343.70108l24.673706 -31.56845l16.779907 36.384003z" fill-rule="evenodd"/><path stroke="#000000" stroke-width="1.0" stroke-linejoin="round" stroke-linecap="butt" d="m1333.8115 343.70108l24.673706 -31.56845l16.779907 36.384003z" fill-rule="evenodd"/><path fill="#9fc5e8" d="m1363.8112 347.97272l29.305908 -27.322662l10.88501 38.560028z" fill-rule="evenodd"/><path stroke="#000000" stroke-width="1.0" stroke-linejoin="round" stroke-linecap="butt" d="m1363.8112 347.97272l29.305908 -27.322662l10.88501 38.560028z" fill-rule="evenodd"/><path fill="#9fc5e8" d="m1303.6456 346.22308l20.86621 -34.204712l20.866089 34.204712z" fill-rule="evenodd"/><path stroke="#000000" stroke-width="1.0" stroke-linejoin="round" stroke-linecap="butt" d="m1303.6456 346.22308l20.86621 -34.204712l20.866089 34.204712z" fill-rule="evenodd"/><path fill="#9fc5e8" d="m1419.412 483.58667l24.944336 -26.155487l10.085449 34.708008z" fill-rule="evenodd"/><path stroke="#000000" stroke-width="1.0" stroke-linejoin="round" stroke-linecap="butt" d="m1419.412 483.58667l24.944336 -26.155487l10.085449 34.708008z" fill-rule="evenodd"/><path fill="#9fc5e8" d="m1533.3701 321.37674l-54.084595 7.769745l-21.112183 66.90741l39.096436 58.257935l54.084595 -7.769745l-39.096313 -58.257935z" fill-rule="evenodd"/><path stroke="#000000" stroke-width="1.0" stroke-linejoin="round" stroke-linecap="butt" d="m1533.3701 321.37674l-54.084595 7.769745l-21.112183 66.90741l39.096436 58.257935l54.084595 -7.769745l-39.096313 -58.257935z" fill-rule="evenodd"/><path fill="#ea9999" d="m328.19684 659.47766l0 0c0 59.55243 -50.64096 108.24805 -114.14479 109.75989c-63.503815 1.5119019 -116.71607 -44.71118 -119.94045 -104.18683l103.9161 -4.951172c0.74742126 3.0665894 6.789322 5.3390503 13.755264 5.173584c6.9659424 -0.16546631 12.422394 -2.7111206 12.422394 -5.795471z" fill-rule="evenodd"/><path stroke="#000000" stroke-width="1.0" stroke-linejoin="round" stroke-linecap="butt" d="m328.19684 659.47766l0 0c0 59.55243 -50.64096 108.24805 -114.14479 109.75989c-63.503815 1.5119019 -116.71607 -44.71118 -119.94045 -104.18683l103.9161 -4.951172c0.74742126 3.0665894 6.789322 5.3390503 13.755264 5.173584c6.9659424 -0.16546631 12.422394 -2.7111206 12.422394 -5.795471z" fill-rule="evenodd"/><path fill="#6aa84f" d="m328.19684 659.47766l0 0c0 59.699524 -50.882507 108.458984 -114.548355 109.76886c-63.665863 1.3098755 -116.78125 -45.309814 -119.57509 -104.95184l28.246613 -1.1629028l0 0c2.164589 44.268494 42.469177 78.84393 90.75038 77.85065c48.281204 -0.99334717 86.85637 -37.19171 86.85637 -81.50476z" fill-rule="evenodd"/><path stroke="#000000" stroke-width="1.0" stroke-linejoin="round" stroke-linecap="butt" d="m328.19684 659.47766l0 0c0 59.699524 -50.882507 108.458984 -114.548355 109.76886c-63.665863 1.3098755 -116.78125 -45.309814 -119.57509 -104.95184l28.246613 -1.1629028l0 0c2.164589 44.268494 42.469177 78.84393 90.75038 77.85065c48.281204 -0.99334717 86.85637 -37.19171 86.85637 -81.50476z" fill-rule="evenodd"/><path fill="#000000" d="m178.96326 677.08923l0 0c0 2.3657227 -2.6510468 4.2834473 -5.9212646 4.2834473l0 0c-3.270218 0 -5.9212646 -1.9177246 -5.9212646 -4.2834473l0 0c0 -2.3656616 2.6510468 -4.2834473 5.9212646 -4.2834473l0 0c3.270218 0 5.9212646 1.9177856 5.9212646 4.2834473z" fill-rule="evenodd"/><path stroke="#000000" stroke-width="1.0" stroke-linejoin="round" stroke-linecap="butt" d="m178.96326 677.08923l0 0c0 2.3657227 -2.6510468 4.2834473 -5.9212646 4.2834473l0 0c-3.270218 0 -5.9212646 -1.9177246 -5.9212646 -4.2834473l0 0c0 -2.3656616 2.6510468 -4.2834473 5.9212646 -4.2834473l0 0c3.270218 0 5.9212646 1.9177856 5.9212646 4.2834473z" fill-rule="evenodd"/><path fill="#000000" d="m218.96326 701.08923l0 0c0 2.3657227 -2.6510468 4.2834473 -5.9212646 4.2834473l0 0c-3.270218 0 -5.9212646 -1.9177246 -5.9212646 -4.2834473l0 0c0 -2.3656616 2.6510468 -4.2834473 5.9212646 -4.2834473l0 0c3.270218 0 5.9212646 1.9177856 5.9212646 4.2834473z" fill-rule="evenodd"/><path stroke="#000000" stroke-width="1.0" stroke-linejoin="round" stroke-linecap="butt" d="m218.96326 701.08923l0 0c0 2.3657227 -2.6510468 4.2834473 -5.9212646 4.2834473l0 0c-3.270218 0 -5.9212646 -1.9177246 -5.9212646 -4.2834473l0 0c0 -2.3656616 2.6510468 -4.2834473 5.9212646 -4.2834473l0 0c3.270218 0 5.9212646 1.9177856 5.9212646 4.2834473z" fill-rule="evenodd"/><path fill="#000000" d="m282.96326 685.08923l0 0c0 2.3657227 -2.6510315 4.2834473 -5.9212646 4.2834473l0 0c-3.2702332 0 -5.9212646 -1.9177246 -5.9212646 -4.2834473l0 0c0 -2.3656616 2.6510315 -4.2834473 5.9212646 -4.2834473l0 0c3.2702332 0 5.9212646 1.9177856 5.9212646 4.2834473z" fill-rule="evenodd"/><path stroke="#000000" stroke-width="1.0" stroke-linejoin="round" stroke-linecap="butt" d="m282.96326 685.08923l0 0c0 2.3657227 -2.6510315 4.2834473 -5.9212646 4.2834473l0 0c-3.2702332 0 -5.9212646 -1.9177246 -5.9212646 -4.2834473l0 0c0 -2.3656616 2.6510315 -4.2834473 5.9212646 -4.2834473l0 0c3.2702332 0 5.9212646 1.9177856 5.9212646 4.2834473z" fill-rule="evenodd"/><path fill="#000000" d="m250.96326 677.08923l0 0c0 2.3657227 -2.6510468 4.2834473 -5.9212646 4.2834473l0 0c-3.270218 0 -5.9212646 -1.9177246 -5.9212646 -4.2834473l0 0c0 -2.3656616 2.6510468 -4.2834473 5.9212646 -4.2834473l0 0c3.270218 0 5.9212646 1.9177856 5.9212646 4.2834473z" fill-rule="evenodd"/><path stroke="#000000" stroke-width="1.0" stroke-linejoin="round" stroke-linecap="butt" d="m250.96326 677.08923l0 0c0 2.3657227 -2.6510468 4.2834473 -5.9212646 4.2834473l0 0c-3.270218 0 -5.9212646 -1.9177246 -5.9212646 -4.2834473l0 0c0 -2.3656616 2.6510468 -4.2834473 5.9212646 -4.2834473l0 0c3.270218 0 5.9212646 1.9177856 5.9212646 4.2834473z" fill-rule="evenodd"/><path fill="#000000" d="m250.96326 709.08923l0 0c0 2.3657227 -2.6510468 4.2834473 -5.9212646 4.2834473l0 0c-3.270218 0 -5.9212646 -1.9177246 -5.9212646 -4.2834473l0 0c0 -2.3656616 2.6510468 -4.2834473 5.9212646 -4.2834473l0 0c3.270218 0 5.9212646 1.9177856 5.9212646 4.2834473z" fill-rule="evenodd"/><path stroke="#000000" stroke-width="1.0" stroke-linejoin="round" stroke-linecap="butt" d="m250.96326 709.08923l0 0c0 2.3657227 -2.6510468 4.2834473 -5.9212646 4.2834473l0 0c-3.270218 0 -5.9212646 -1.9177246 -5.9212646 -4.2834473l0 0c0 -2.3656616 2.6510468 -4.2834473 5.9212646 -4.2834473l0 0c3.270218 0 5.9212646 1.9177856 5.9212646 4.2834473z" fill-rule="evenodd"/><path fill="#000000" d="m202.96326 685.08923l0 0c0 2.3657227 -2.6510468 4.2834473 -5.9212646 4.2834473l0 0c-3.270218 0 -5.9212646 -1.9177246 -5.9212646 -4.2834473l0 0c0 -2.3656616 2.6510468 -4.2834473 5.9212646 -4.2834473l0 0c3.270218 0 5.9212646 1.9177856 5.9212646 4.2834473z" fill-rule="evenodd"/><path stroke="#000000" stroke-width="1.0" stroke-linejoin="round" stroke-linecap="butt" d="m202.96326 685.08923l0 0c0 2.3657227 -2.6510468 4.2834473 -5.9212646 4.2834473l0 0c-3.270218 0 -5.9212646 -1.9177246 -5.9212646 -4.2834473l0 0c0 -2.3656616 2.6510468 -4.2834473 5.9212646 -4.2834473l0 0c3.270218 0 5.9212646 1.9177856 5.9212646 4.2834473z" fill-rule="evenodd"/><path fill="#000000" d="m178.96326 701.08923l0 0c0 2.3657227 -2.6510468 4.2834473 -5.9212646 4.2834473l0 0c-3.270218 0 -5.9212646 -1.9177246 -5.9212646 -4.2834473l0 0c0 -2.3656616 2.6510468 -4.2834473 5.9212646 -4.2834473l0 0c3.270218 0 5.9212646 1.9177856 5.9212646 4.2834473z" fill-rule="evenodd"/><path stroke="#000000" stroke-width="1.0" stroke-linejoin="round" stroke-linecap="butt" d="m178.96326 701.08923l0 0c0 2.3657227 -2.6510468 4.2834473 -5.9212646 4.2834473l0 0c-3.270218 0 -5.9212646 -1.9177246 -5.9212646 -4.2834473l0 0c0 -2.3656616 2.6510468 -4.2834473 5.9212646 -4.2834473l0 0c3.270218 0 5.9212646 1.9177856 5.9212646 4.2834473z" fill-rule="evenodd"/><path fill="#000000" d="m146.96326 677.08923l0 0c0 2.3657227 -2.6510468 4.2834473 -5.9212646 4.2834473l0 0c-3.270218 0 -5.9212646 -1.9177246 -5.9212646 -4.2834473l0 0c0 -2.3656616 2.6510468 -4.2834473 5.9212646 -4.2834473l0 0c3.270218 0 5.9212646 1.9177856 5.9212646 4.2834473z" fill-rule="evenodd"/><path stroke="#000000" stroke-width="1.0" stroke-linejoin="round" stroke-linecap="butt" d="m146.96326 677.08923l0 0c0 2.3657227 -2.6510468 4.2834473 -5.9212646 4.2834473l0 0c-3.270218 0 -5.9212646 -1.9177246 -5.9212646 -4.2834473l0 0c0 -2.3656616 2.6510468 -4.2834473 5.9212646 -4.2834473l0 0c3.270218 0 5.9212646 1.9177856 5.9212646 4.2834473z" fill-rule="evenodd"/><path fill="#000000" d="m218.96326 725.08923l0 0c0 2.3657227 -2.6510468 4.2834473 -5.9212646 4.2834473l0 0c-3.270218 0 -5.9212646 -1.9177246 -5.9212646 -4.2834473l0 0c0 -2.3656616 2.6510468 -4.2834473 5.9212646 -4.2834473l0 0c3.270218 0 5.9212646 1.9177856 5.9212646 4.2834473z" fill-rule="evenodd"/><path stroke="#000000" stroke-width="1.0" stroke-linejoin="round" stroke-linecap="butt" d="m218.96326 725.08923l0 0c0 2.3657227 -2.6510468 4.2834473 -5.9212646 4.2834473l0 0c-3.270218 0 -5.9212646 -1.9177246 -5.9212646 -4.2834473l0 0c0 -2.3656616 2.6510468 -4.2834473 5.9212646 -4.2834473l0 0c3.270218 0 5.9212646 1.9177856 5.9212646 4.2834473z" fill-rule="evenodd"/></g></svg>